Patient3_NormalGait_1pt0_02_Right_01_GRF.mot
version=1
nRows=32
nColumns=19
inDegrees=no
endheader
time	F1x	F1y	F1z	M1x	M1y	M1z	F2x	F2y	F2z	M2x	M2y	M2z	EC1x	EC1y	EC1z	EC2x	EC2y	EC2z
0.39	-41.5117	611.2377	27.5534	-259.8436	-29.8375	382.3598	-7.0398	14.3637	18.2662	-2.8011	-20.6155	17.0044	-0.0592	0.0182	-0.0073	-0.0462	0.0165	0.9585
0.40243	-36.3549	613.9347	27.8357	-260.1967	-28.9793	383.7053	-5.2495	10.6719	13.1424	-1.8359	-14.7077	12.5515	-0.0592	0.0182	-0.0073	-0.0462	0.0165	0.9585
0.41486	-30.6688	616.2401	27.9465	-260.3744	-27.651	383.7076	-3.4873	7.1754	8.2655	-0.92576	-9.1222	8.3384	-0.0592	0.0182	-0.0073	-0.0462	0.0165	0.9585
0.42729	-24.8178	617.6054	27.8871	-260.2514	-25.8661	381.7199	-2.0525	4.3721	4.3278	-0.19304	-4.6302	4.948	-0.0592	0.0182	-0.0073	-0.0462	0.0165	0.9585
0.43971	-19.0614	617.7567	27.8419	-259.7415	-23.8337	377.6589	-0.99739	2.3636	1.5311	0.32468	-1.4571	2.4824	-0.0592	0.0182	-0.0073	-0.0462	0.0165	0.9585
0.45214	-13.4657	616.6277	27.8601	-258.8229	-21.6464	371.6908	-0.31728	1.0924	-0.22813	0.65427	0.53374	0.89911	-0.0592	0.0182	-0.0073	-0.0462	0.0165	0.9585
0.46457	-8.0744	614.3643	27.9997	-257.5451	-19.4366	364.2241	0.067182	0.40932	-1.1706	0.84244	1.5959	0.013278	-0.0592	0.0182	-0.0073	-0.0462	0.0165	0.9585
0.477	-2.8337	611.2974	28.2063	-256.0346	-17.2027	355.7264	0.23313	0.17643	-1.5508	0.94331	2.0183	-0.34092	-0.0592	0.0182	-0.0073	-0.0462	0.0165	0.9585
0.48943	2.3375	607.8511	28.5084	-254.4484	-14.9841	346.695	0.25485	0.24375	-1.5773	0.99386	2.0457	-0.33036	-0.0592	0.0182	-0.0073	-0.0462	0.0165	0.9585
0.50186	7.555	604.481	28.8772	-252.9558	-12.7356	337.5672	0.20463	0.4749	-1.4283	1.0156	1.8771	-0.11295	-0.0592	0.0182	-0.0073	-0.0462	0.0165	0.9585
0.51429	12.9194	601.5869	29.3663	-251.7046	-10.4747	328.677	0.091179	0.77126	-1.2124	1.0168	1.6421	0.22139	-0.0592	0.0182	-0.0073	-0.0462	0.0165	0.9585
0.52671	18.5074	599.5378	29.9684	-250.8376	-8.16	320.3098	-0.042557	0.97885	-1.0087	0.97367	1.4235	0.48654	-0.0592	0.0182	-0.0073	-0.0462	0.0165	0.9585
0.53914	24.4126	598.6748	30.713	-250.49	-5.7873	312.6435	-0.20302	0.98353	-0.86005	0.85568	1.2744	0.58734	-0.0592	0.0182	-0.0073	-0.0462	0.0165	0.9585
0.55157	30.6857	599.3031	31.5599	-250.7844	-3.3075	305.8119	-0.33585	0.6305	-0.79517	0.61173	1.2111	0.35613	-0.0592	0.0182	-0.0073	-0.0462	0.0165	0.9585
0.564	37.3985	601.5979	32.4934	-251.8023	-0.69602	299.8093	-0.44321	-0.19101	-0.81503	0.19595	1.2311	-0.28632	-0.0592	0.0182	-0.0073	-0.0462	0.0165	0.9585
0.57643	44.5565	605.6228	33.4607	-253.5839	2.0881	294.6208	-0.46958	-1.5851	-0.92637	-0.43401	1.3172	-1.4391	-0.0592	0.0182	-0.0073	-0.0462	0.0165	0.9585
0.58886	52.1331	611.3003	34.4231	-256.1167	5.0623	290.1084	-0.39576	-3.5258	-1.1063	-1.2748	1.4321	-3.0532	-0.0592	0.0182	-0.0073	-0.0462	0.0165	0.9585
0.60129	60.0621	618.4556	35.33	-259.3378	8.2458	286.0962	-0.15284	-5.8266	-1.3237	-2.2505	1.5211	-4.9599	-0.0592	0.0182	-0.0073	-0.0462	0.0165	0.9585
0.61371	68.2796	626.737	36.1534	-263.1001	11.6458	282.3591	0.31514	-8.0088	-1.4961	-3.1579	1.4814	-6.733	-0.0592	0.0182	-0.0073	-0.0462	0.0165	0.9585
0.62614	76.711	635.5497	36.8723	-267.1442	15.259	278.637	1.0511	-9.2263	-1.5204	-3.6279	1.1946	-7.6761	-0.0592	0.0182	-0.0073	-0.0462	0.0165	0.9585
0.63857	85.2575	643.9811	37.4516	-271.0692	19.0724	274.6046	2.0684	-8.1436	-1.2344	-3.073	0.49951	-6.7271	-0.0592	0.0182	-0.0073	-0.0462	0.0165	0.9585
0.651	93.8262	650.8042	37.7897	-274.3437	23.0647	269.8274	3.2817	-2.8769	-0.46264	-0.66349	-0.7309	-2.3921	-0.0592	0.0182	-0.0073	-0.0462	0.0165	0.9585
0.66343	102.2039	654.5839	37.643	-276.3484	27.2241	263.8839	4.5012	8.8955	1.0013	4.6292	-2.6051	7.1271	-0.0592	0.0182	-0.0073	-0.0462	0.0165	0.9585
0.67586	110.1048	653.7203	36.7304	-276.3981	31.4815	256.3229	5.273	29.633	3.3126	13.8862	-5.0811	23.7607	-0.0592	0.0182	-0.0073	-0.0462	0.0165	0.9585
0.68829	117.0463	646.489	34.7985	-273.7535	35.695	246.7441	4.8612	61.2507	6.5011	27.942	-7.8693	48.9578	-0.0592	0.0182	-0.0073	-0.0462	0.0165	0.9585
0.70071	122.4445	631.0628	31.795	-267.6256	39.5832	234.7074	1.9312	104.2867	10.2826	46.9875	-10.1514	83.0905	-0.0592	0.0182	-0.0073	-0.0462	0.0165	0.9585
0.71314	125.5603	605.7473	27.8707	-257.2627	42.7515	219.8528	-4.9814	157.2533	13.7145	70.2957	-10.4827	124.9298	-0.0592	0.0182	-0.0073	-0.0462	0.0165	0.9585
0.72557	125.6555	569.361	23.3504	-242.1253	44.7292	201.9652	-15.8221	218.1598	15.5042	96.8578	-7.7683	172.9505	-0.0592	0.0182	-0.0073	-0.0462	0.0165	0.9585
0.738	122.0813	521.7846	18.5551	-222.1304	45.1215	181.1904	-29.5097	285.0346	14.7652	125.6663	-1.7308	225.5764	-0.0592	0.0182	-0.0073	-0.0462	0.0165	0.9585
0.75043	114.5053	464.2706	13.7924	-197.7991	43.6654	158.0996	-44.9937	354.7373	10.9091	155.2601	7.669	280.2374	-0.0592	0.0182	-0.0073	-0.0462	0.0165	0.9585
0.76286	103.1205	399.5106	9.2658	-170.2915	40.4119	133.6593	-60.8462	422.9654	4.0475	183.789	19.6979	333.3786	-0.0592	0.0182	-0.0073	-0.0462	0.0165	0.9585
0.77529	88.885	331.3389	5.2328	-141.2564	35.7158	109.0865	-75.5908	485.9807	-4.5664	209.7763	32.5968	381.8159	-0.0592	0.0182	-0.0073	-0.0462	0.0165	0.9585
